# xmcd
#
# Track frame offsets:
#   150
#   18846
#   44850
#   57570
#   70742
#   85401
#   104273
#   115954
#   127641
#   145618
#   155977
#   172184
#   188221
#   203748
#
# Disc length: 2961 seconds
#
# Revision: 0
# Processed by: cddbd v1.5.2PL0 Copyright (c) Steve Scherf et al.
# Submitted via: uFREEDB 1.6.0
#
DISCID=ca0b8f0e
DTITLE=RADIO CONTINENTAL - OS BONS TEMPOS ESTÃO DE VOLTA
DYEAR=1900
DGENRE=Soundtrack
TTITLE0=ROCK AND ROLL LULLABY
TTITLE1=CHERISH
TTITLE2=ALINE
TTITLE3=SHE'S MY GIRL
TTITLE4=CAN'T TAKE MY EYES OF YOU
TTITLE5=I CAN'T STOP LOVING YOU
TTITLE6=ONLY YOU
TTITLE7=QUE CÉST TRISTE VENICE
TTITLE8=SUMMER HOLLIDAY
TTITLE9=DONNA
TTITLE10=GEORGIA ON MY MIND
TTITLE11=I'VE GOT YOU UNDER MY SKIN
TTITLE12=UNFORGETTABLE
TTITLE13=LADY LOVE (LIVE)
EXTD=
EXTT0=
EXTT1=
EXTT2=
EXTT3=
EXTT4=
EXTT5=
EXTT6=
EXTT7=
EXTT8=
EXTT9=
EXTT10=
EXTT11=
EXTT12=
EXTT13=
PLAYORDER=
